<svg width="444" height="466" viewBox="0 0 444 466" fill="#0C1014"
  xmlns="http://www.w3.org/2000/svg">
  <path fill-rule="evenodd" clip-rule="evenodd" d="M0 0.5H212L229.5 1C280 5.5 312 24 328 61C349.272 110.191 342.5 150 337 172.5C331.5 195 315 218.5 315 218.5C298.5 239 281.5 252.5 251 260.5C250.585 260.704 274 267.5 287 284C297.077 295.337 306.929 310.722 312.5 322.963L320 341L324 351L338.5 384L345 400.5L380.5 293.5L424 308L372 465.5H239.5L209.5 397C198 397 176.5 397 118 397V351H189C177 324.878 169.5 304.5 163 296C159.986 291.702 158.109 289.653 154.5 286.5C150.1 283.266 147.473 281.734 142.5 279.5C135.085 276.211 117.315 277.102 118 277C118 277 118 242 118 234.5C118 215 118 204 118 188C118 188 160.48 189.708 172.5 188C179.183 187.05 192.935 183.894 205.5 178.5C215.295 174.295 222.859 155.562 222.5 153.5C224.5 144 223.779 137 221.5 123.5C212.413 106.512 208.693 98.7353 177.5 95H118V465H0V0.5Z"/>
  <path d="M444 260C444 274.359 432.359 286 418 286C403.641 286 392 274.359 392 260C392 245.641 403.641 234 418 234C432.359 234 444 245.641 444 260Z"/>
</svg>
