<svg width="529" height="548" viewBox="0 0 529 548" fill="#000"
  xmlns="http://www.w3.org/2000/svg">
  <path d="M407.025 99.7985C339.986 44.7694 241.062 54.0717 186.504 120.536C149.799 165.252 141.28 225.68 163.089 278.615L94.1453 362.606C84.4614 359.073 73.2455 361.736 66.3853 370.093C57.6798 380.698 59.2946 396.415 69.9919 405.196L173.165 489.887C183.863 498.668 199.593 497.188 208.298 486.583C215.158 478.226 215.584 466.706 210.232 457.896L279.176 373.906C335.349 384.98 392.957 364.85 429.663 320.134C484.22 253.67 474.065 154.829 407.025 99.7985ZM375.499 138.205C412.18 168.315 423.841 217.667 407.773 259.394C403.795 250.665 397.453 240.567 384.881 230.247C366.723 215.342 351.715 213.162 340.755 211.571C332.706 210.404 328.667 209.816 321.379 203.833C314.088 197.849 312.723 194 310.008 186.333C306.312 175.893 301.249 161.597 283.09 146.692C270.693 136.516 259.741 132.253 250.544 130.047C288.318 106.285 338.882 108.148 375.499 138.205ZM277.011 322.088C267.307 319.067 256.787 322.187 250.387 329.984L172.408 424.982L133.8 393.29L211.78 298.292C218.18 290.496 219.189 279.568 214.335 270.641C197.424 239.544 197.035 203.152 212.125 172.643C219.707 175.393 226.368 176.399 231.967 177.237C240.129 178.459 244.226 179.073 251.565 185.097C258.856 191.082 260.22 194.93 262.934 202.599C266.631 213.038 271.694 227.335 289.853 242.24C308.01 257.145 323.017 259.324 333.977 260.915C342.026 262.082 346.066 262.669 353.355 268.652C360.713 274.692 362.147 278.662 365.005 286.568C366.943 291.93 369.26 298.308 373.455 305.238C346.483 325.921 310.764 332.601 277.011 322.088Z"/>
</svg>
